<mxfile host="app.diagrams.net" agent="Mozilla/5.0 (Windows NT 10.0; Win64; x64) AppleWebKit/537.36 (KHTML, like Gecko) Chrome/131.0.0.0 Safari/537.36" version="26.0.7">
  <diagram id="R2lEEEUBdFMjLlhIrx00" name="Page-1">
    <mxGraphModel dx="1434" dy="772" grid="1" gridSize="10" guides="1" tooltips="1" connect="1" arrows="1" fold="1" page="1" pageScale="1" pageWidth="850" pageHeight="1100" math="0" shadow="0" extFonts="Permanent Marker^https://fonts.googleapis.com/css?family=Permanent+Marker">
      <root>
        <mxCell id="0" />
        <mxCell id="1" parent="0" />
        <mxCell id="C-vyLk0tnHw3VtMMgP7b-23" value="VOLUNTEERS" style="shape=table;startSize=30;container=1;collapsible=1;childLayout=tableLayout;fixedRows=1;rowLines=0;fontStyle=1;align=center;resizeLast=1;html=1;verticalAlign=top;" parent="1" vertex="1">
          <mxGeometry x="120" y="310" width="140" height="120" as="geometry">
            <mxRectangle x="120" y="150" width="100" height="30" as="alternateBounds" />
          </mxGeometry>
        </mxCell>
        <mxCell id="C-vyLk0tnHw3VtMMgP7b-24" value="" style="shape=partialRectangle;collapsible=0;dropTarget=0;pointerEvents=0;fillColor=none;points=[[0,0.5],[1,0.5]];portConstraint=eastwest;top=0;left=0;right=0;bottom=1;fontStyle=1;html=1;verticalAlign=top;" parent="C-vyLk0tnHw3VtMMgP7b-23" vertex="1">
          <mxGeometry y="30" width="140" height="30" as="geometry" />
        </mxCell>
        <mxCell id="C-vyLk0tnHw3VtMMgP7b-25" value="PK" style="shape=partialRectangle;overflow=hidden;connectable=0;fillColor=none;top=0;left=0;bottom=0;right=0;fontStyle=1;html=1;verticalAlign=top;" parent="C-vyLk0tnHw3VtMMgP7b-24" vertex="1">
          <mxGeometry width="30" height="30" as="geometry">
            <mxRectangle width="30" height="30" as="alternateBounds" />
          </mxGeometry>
        </mxCell>
        <mxCell id="C-vyLk0tnHw3VtMMgP7b-26" value="VOL_ID" style="shape=partialRectangle;overflow=hidden;connectable=0;fillColor=none;top=0;left=0;bottom=0;right=0;align=left;spacingLeft=6;fontStyle=5;horizontal=1;html=1;verticalAlign=top;" parent="C-vyLk0tnHw3VtMMgP7b-24" vertex="1">
          <mxGeometry x="30" width="110" height="30" as="geometry">
            <mxRectangle width="110" height="30" as="alternateBounds" />
          </mxGeometry>
        </mxCell>
        <mxCell id="C-vyLk0tnHw3VtMMgP7b-27" value="" style="shape=partialRectangle;collapsible=0;dropTarget=0;pointerEvents=0;fillColor=none;points=[[0,0.5],[1,0.5]];portConstraint=eastwest;top=0;left=0;right=0;bottom=0;fontStyle=1;html=1;verticalAlign=top;" parent="C-vyLk0tnHw3VtMMgP7b-23" vertex="1">
          <mxGeometry y="60" width="140" height="60" as="geometry" />
        </mxCell>
        <mxCell id="C-vyLk0tnHw3VtMMgP7b-28" value="" style="shape=partialRectangle;overflow=hidden;connectable=0;fillColor=none;top=0;left=0;bottom=0;right=0;fontStyle=1;html=1;verticalAlign=top;" parent="C-vyLk0tnHw3VtMMgP7b-27" vertex="1">
          <mxGeometry width="30" height="60" as="geometry">
            <mxRectangle width="30" height="60" as="alternateBounds" />
          </mxGeometry>
        </mxCell>
        <mxCell id="C-vyLk0tnHw3VtMMgP7b-29" value="VOL_NAME&lt;br&gt;VOL_ADDR&lt;br&gt;VOL_TELE" style="shape=partialRectangle;overflow=hidden;connectable=0;fillColor=none;top=0;left=0;bottom=0;right=0;align=left;spacingLeft=6;fontStyle=1;html=1;verticalAlign=top;" parent="C-vyLk0tnHw3VtMMgP7b-27" vertex="1">
          <mxGeometry x="30" width="110" height="60" as="geometry">
            <mxRectangle width="110" height="60" as="alternateBounds" />
          </mxGeometry>
        </mxCell>
        <mxCell id="v_CpzFp49FXpS_RmVi6n-78" value="TASKS" style="shape=table;startSize=30;container=1;collapsible=1;childLayout=tableLayout;fixedRows=1;rowLines=0;fontStyle=1;align=center;resizeLast=1;html=1;verticalAlign=top;" vertex="1" parent="1">
          <mxGeometry x="120" y="500" width="140" height="130" as="geometry">
            <mxRectangle x="120" y="150" width="100" height="30" as="alternateBounds" />
          </mxGeometry>
        </mxCell>
        <mxCell id="v_CpzFp49FXpS_RmVi6n-79" value="" style="shape=partialRectangle;collapsible=0;dropTarget=0;pointerEvents=0;fillColor=none;points=[[0,0.5],[1,0.5]];portConstraint=eastwest;top=0;left=0;right=0;bottom=1;fontStyle=1;html=1;verticalAlign=top;" vertex="1" parent="v_CpzFp49FXpS_RmVi6n-78">
          <mxGeometry y="30" width="140" height="30" as="geometry" />
        </mxCell>
        <mxCell id="v_CpzFp49FXpS_RmVi6n-80" value="PK" style="shape=partialRectangle;overflow=hidden;connectable=0;fillColor=none;top=0;left=0;bottom=0;right=0;fontStyle=1;html=1;verticalAlign=top;" vertex="1" parent="v_CpzFp49FXpS_RmVi6n-79">
          <mxGeometry width="30" height="30" as="geometry">
            <mxRectangle width="30" height="30" as="alternateBounds" />
          </mxGeometry>
        </mxCell>
        <mxCell id="v_CpzFp49FXpS_RmVi6n-81" value="TASK_CODE" style="shape=partialRectangle;overflow=hidden;connectable=0;fillColor=none;top=0;left=0;bottom=0;right=0;align=left;spacingLeft=6;fontStyle=5;horizontal=1;html=1;verticalAlign=top;" vertex="1" parent="v_CpzFp49FXpS_RmVi6n-79">
          <mxGeometry x="30" width="110" height="30" as="geometry">
            <mxRectangle width="110" height="30" as="alternateBounds" />
          </mxGeometry>
        </mxCell>
        <mxCell id="v_CpzFp49FXpS_RmVi6n-82" value="" style="shape=partialRectangle;collapsible=0;dropTarget=0;pointerEvents=0;fillColor=none;points=[[0,0.5],[1,0.5]];portConstraint=eastwest;top=0;left=0;right=0;bottom=0;fontStyle=1;html=1;verticalAlign=top;" vertex="1" parent="v_CpzFp49FXpS_RmVi6n-78">
          <mxGeometry y="60" width="140" height="70" as="geometry" />
        </mxCell>
        <mxCell id="v_CpzFp49FXpS_RmVi6n-83" value="&lt;div&gt;&lt;br&gt;&lt;/div&gt;&lt;div&gt;&lt;br&gt;&lt;/div&gt;&lt;div&gt;&lt;br&gt;&lt;/div&gt;&lt;div&gt;FK1&lt;/div&gt;" style="shape=partialRectangle;overflow=hidden;connectable=0;fillColor=none;top=0;left=0;bottom=0;right=0;fontStyle=1;html=1;verticalAlign=top;" vertex="1" parent="v_CpzFp49FXpS_RmVi6n-82">
          <mxGeometry width="30" height="70" as="geometry">
            <mxRectangle width="30" height="70" as="alternateBounds" />
          </mxGeometry>
        </mxCell>
        <mxCell id="v_CpzFp49FXpS_RmVi6n-84" value="TASK_DES&lt;div&gt;TASK_TYPE&lt;/div&gt;&lt;div&gt;TASK_STAT&lt;/div&gt;&lt;div&gt;PACK_LIST_ID&lt;/div&gt;" style="shape=partialRectangle;overflow=hidden;connectable=0;fillColor=none;top=0;left=0;bottom=0;right=0;align=left;spacingLeft=6;fontStyle=1;html=1;verticalAlign=top;" vertex="1" parent="v_CpzFp49FXpS_RmVi6n-82">
          <mxGeometry x="30" width="110" height="70" as="geometry">
            <mxRectangle width="110" height="70" as="alternateBounds" />
          </mxGeometry>
        </mxCell>
        <mxCell id="v_CpzFp49FXpS_RmVi6n-86" value="PACKAGES" style="shape=table;startSize=30;container=1;collapsible=1;childLayout=tableLayout;fixedRows=1;rowLines=0;fontStyle=1;align=center;resizeLast=1;html=1;verticalAlign=top;" vertex="1" parent="1">
          <mxGeometry x="370" y="490" width="140" height="120" as="geometry">
            <mxRectangle x="120" y="150" width="100" height="30" as="alternateBounds" />
          </mxGeometry>
        </mxCell>
        <mxCell id="v_CpzFp49FXpS_RmVi6n-87" value="" style="shape=partialRectangle;collapsible=0;dropTarget=0;pointerEvents=0;fillColor=none;points=[[0,0.5],[1,0.5]];portConstraint=eastwest;top=0;left=0;right=0;bottom=1;fontStyle=1;html=1;verticalAlign=top;" vertex="1" parent="v_CpzFp49FXpS_RmVi6n-86">
          <mxGeometry y="30" width="140" height="30" as="geometry" />
        </mxCell>
        <mxCell id="v_CpzFp49FXpS_RmVi6n-88" value="PK" style="shape=partialRectangle;overflow=hidden;connectable=0;fillColor=none;top=0;left=0;bottom=0;right=0;fontStyle=1;html=1;verticalAlign=top;" vertex="1" parent="v_CpzFp49FXpS_RmVi6n-87">
          <mxGeometry width="30" height="30" as="geometry">
            <mxRectangle width="30" height="30" as="alternateBounds" />
          </mxGeometry>
        </mxCell>
        <mxCell id="v_CpzFp49FXpS_RmVi6n-89" value="PACKAGE_ID" style="shape=partialRectangle;overflow=hidden;connectable=0;fillColor=none;top=0;left=0;bottom=0;right=0;align=left;spacingLeft=6;fontStyle=5;horizontal=1;html=1;verticalAlign=top;" vertex="1" parent="v_CpzFp49FXpS_RmVi6n-87">
          <mxGeometry x="30" width="110" height="30" as="geometry">
            <mxRectangle width="110" height="30" as="alternateBounds" />
          </mxGeometry>
        </mxCell>
        <mxCell id="v_CpzFp49FXpS_RmVi6n-90" value="" style="shape=partialRectangle;collapsible=0;dropTarget=0;pointerEvents=0;fillColor=none;points=[[0,0.5],[1,0.5]];portConstraint=eastwest;top=0;left=0;right=0;bottom=0;fontStyle=1;html=1;verticalAlign=top;" vertex="1" parent="v_CpzFp49FXpS_RmVi6n-86">
          <mxGeometry y="60" width="140" height="60" as="geometry" />
        </mxCell>
        <mxCell id="v_CpzFp49FXpS_RmVi6n-91" value="&lt;div&gt;&lt;br&gt;&lt;/div&gt;&lt;div&gt;&lt;br&gt;&lt;/div&gt;&lt;div&gt;FK1&lt;/div&gt;" style="shape=partialRectangle;overflow=hidden;connectable=0;fillColor=none;top=0;left=0;bottom=0;right=0;fontStyle=1;html=1;verticalAlign=top;" vertex="1" parent="v_CpzFp49FXpS_RmVi6n-90">
          <mxGeometry width="30" height="60" as="geometry">
            <mxRectangle width="30" height="60" as="alternateBounds" />
          </mxGeometry>
        </mxCell>
        <mxCell id="v_CpzFp49FXpS_RmVi6n-92" value="DATE_CREATED&lt;div&gt;TOT_WEIGHT&lt;/div&gt;&lt;div&gt;TASK_CODE&lt;br&gt;&lt;/div&gt;" style="shape=partialRectangle;overflow=hidden;connectable=0;fillColor=none;top=0;left=0;bottom=0;right=0;align=left;spacingLeft=6;fontStyle=1;html=1;verticalAlign=top;" vertex="1" parent="v_CpzFp49FXpS_RmVi6n-90">
          <mxGeometry x="30" width="110" height="60" as="geometry">
            <mxRectangle width="110" height="60" as="alternateBounds" />
          </mxGeometry>
        </mxCell>
        <mxCell id="v_CpzFp49FXpS_RmVi6n-93" value="TASK_ASSIGN" style="shape=table;startSize=30;container=1;collapsible=1;childLayout=tableLayout;fixedRows=1;rowLines=0;fontStyle=1;align=center;resizeLast=1;html=1;verticalAlign=top;" vertex="1" parent="1">
          <mxGeometry x="370" y="310" width="140" height="130" as="geometry">
            <mxRectangle x="120" y="150" width="100" height="30" as="alternateBounds" />
          </mxGeometry>
        </mxCell>
        <mxCell id="v_CpzFp49FXpS_RmVi6n-94" value="" style="shape=partialRectangle;collapsible=0;dropTarget=0;pointerEvents=0;fillColor=none;points=[[0,0.5],[1,0.5]];portConstraint=eastwest;top=0;left=0;right=0;bottom=1;fontStyle=1;html=1;verticalAlign=top;" vertex="1" parent="v_CpzFp49FXpS_RmVi6n-93">
          <mxGeometry y="30" width="140" height="30" as="geometry" />
        </mxCell>
        <mxCell id="v_CpzFp49FXpS_RmVi6n-95" value="PK" style="shape=partialRectangle;overflow=hidden;connectable=0;fillColor=none;top=0;left=0;bottom=0;right=0;fontStyle=1;html=1;verticalAlign=top;" vertex="1" parent="v_CpzFp49FXpS_RmVi6n-94">
          <mxGeometry width="30" height="30" as="geometry">
            <mxRectangle width="30" height="30" as="alternateBounds" />
          </mxGeometry>
        </mxCell>
        <mxCell id="v_CpzFp49FXpS_RmVi6n-96" value="ID" style="shape=partialRectangle;overflow=hidden;connectable=0;fillColor=none;top=0;left=0;bottom=0;right=0;align=left;spacingLeft=6;fontStyle=5;horizontal=1;html=1;verticalAlign=top;" vertex="1" parent="v_CpzFp49FXpS_RmVi6n-94">
          <mxGeometry x="30" width="110" height="30" as="geometry">
            <mxRectangle width="110" height="30" as="alternateBounds" />
          </mxGeometry>
        </mxCell>
        <mxCell id="v_CpzFp49FXpS_RmVi6n-97" value="" style="shape=partialRectangle;collapsible=0;dropTarget=0;pointerEvents=0;fillColor=none;points=[[0,0.5],[1,0.5]];portConstraint=eastwest;top=0;left=0;right=0;bottom=0;fontStyle=1;html=1;verticalAlign=top;" vertex="1" parent="v_CpzFp49FXpS_RmVi6n-93">
          <mxGeometry y="60" width="140" height="70" as="geometry" />
        </mxCell>
        <mxCell id="v_CpzFp49FXpS_RmVi6n-98" value="&lt;div&gt;&lt;span style=&quot;background-color: transparent; color: light-dark(rgb(0, 0, 0), rgb(255, 255, 255));&quot;&gt;FK1&lt;/span&gt;&lt;/div&gt;&lt;div&gt;&lt;span style=&quot;background-color: transparent; color: light-dark(rgb(0, 0, 0), rgb(255, 255, 255));&quot;&gt;FK2&lt;/span&gt;&lt;/div&gt;" style="shape=partialRectangle;overflow=hidden;connectable=0;fillColor=none;top=0;left=0;bottom=0;right=0;fontStyle=1;html=1;verticalAlign=top;" vertex="1" parent="v_CpzFp49FXpS_RmVi6n-97">
          <mxGeometry width="30" height="70" as="geometry">
            <mxRectangle width="30" height="70" as="alternateBounds" />
          </mxGeometry>
        </mxCell>
        <mxCell id="v_CpzFp49FXpS_RmVi6n-99" value="VOL_ID&lt;div&gt;TASK_CODE&lt;/div&gt;&lt;div&gt;START_TIME&lt;/div&gt;&lt;div&gt;END_TIME&lt;/div&gt;" style="shape=partialRectangle;overflow=hidden;connectable=0;fillColor=none;top=0;left=0;bottom=0;right=0;align=left;spacingLeft=6;fontStyle=1;html=1;verticalAlign=top;" vertex="1" parent="v_CpzFp49FXpS_RmVi6n-97">
          <mxGeometry x="30" width="110" height="70" as="geometry">
            <mxRectangle width="110" height="70" as="alternateBounds" />
          </mxGeometry>
        </mxCell>
        <mxCell id="v_CpzFp49FXpS_RmVi6n-100" value="PACK_LIST" style="shape=table;startSize=30;container=1;collapsible=1;childLayout=tableLayout;fixedRows=1;rowLines=0;fontStyle=1;align=center;resizeLast=1;html=1;verticalAlign=top;" vertex="1" parent="1">
          <mxGeometry x="120" y="680" width="140" height="100" as="geometry">
            <mxRectangle x="120" y="150" width="100" height="30" as="alternateBounds" />
          </mxGeometry>
        </mxCell>
        <mxCell id="v_CpzFp49FXpS_RmVi6n-101" value="" style="shape=partialRectangle;collapsible=0;dropTarget=0;pointerEvents=0;fillColor=none;points=[[0,0.5],[1,0.5]];portConstraint=eastwest;top=0;left=0;right=0;bottom=1;fontStyle=1;html=1;verticalAlign=top;" vertex="1" parent="v_CpzFp49FXpS_RmVi6n-100">
          <mxGeometry y="30" width="140" height="30" as="geometry" />
        </mxCell>
        <mxCell id="v_CpzFp49FXpS_RmVi6n-102" value="PK" style="shape=partialRectangle;overflow=hidden;connectable=0;fillColor=none;top=0;left=0;bottom=0;right=0;fontStyle=1;html=1;verticalAlign=top;" vertex="1" parent="v_CpzFp49FXpS_RmVi6n-101">
          <mxGeometry width="30" height="30" as="geometry">
            <mxRectangle width="30" height="30" as="alternateBounds" />
          </mxGeometry>
        </mxCell>
        <mxCell id="v_CpzFp49FXpS_RmVi6n-103" value="PACK_LIST_ID" style="shape=partialRectangle;overflow=hidden;connectable=0;fillColor=none;top=0;left=0;bottom=0;right=0;align=left;spacingLeft=6;fontStyle=5;horizontal=1;html=1;verticalAlign=top;" vertex="1" parent="v_CpzFp49FXpS_RmVi6n-101">
          <mxGeometry x="30" width="110" height="30" as="geometry">
            <mxRectangle width="110" height="30" as="alternateBounds" />
          </mxGeometry>
        </mxCell>
        <mxCell id="v_CpzFp49FXpS_RmVi6n-104" value="" style="shape=partialRectangle;collapsible=0;dropTarget=0;pointerEvents=0;fillColor=none;points=[[0,0.5],[1,0.5]];portConstraint=eastwest;top=0;left=0;right=0;bottom=0;fontStyle=1;html=1;verticalAlign=top;" vertex="1" parent="v_CpzFp49FXpS_RmVi6n-100">
          <mxGeometry y="60" width="140" height="40" as="geometry" />
        </mxCell>
        <mxCell id="v_CpzFp49FXpS_RmVi6n-105" value="" style="shape=partialRectangle;overflow=hidden;connectable=0;fillColor=none;top=0;left=0;bottom=0;right=0;fontStyle=1;html=1;verticalAlign=top;" vertex="1" parent="v_CpzFp49FXpS_RmVi6n-104">
          <mxGeometry width="30" height="40" as="geometry">
            <mxRectangle width="30" height="40" as="alternateBounds" />
          </mxGeometry>
        </mxCell>
        <mxCell id="v_CpzFp49FXpS_RmVi6n-106" value="&lt;div&gt;NAME&lt;/div&gt;&lt;div&gt;DES&lt;/div&gt;" style="shape=partialRectangle;overflow=hidden;connectable=0;fillColor=none;top=0;left=0;bottom=0;right=0;align=left;spacingLeft=6;fontStyle=1;html=1;verticalAlign=top;" vertex="1" parent="v_CpzFp49FXpS_RmVi6n-104">
          <mxGeometry x="30" width="110" height="40" as="geometry">
            <mxRectangle width="110" height="40" as="alternateBounds" />
          </mxGeometry>
        </mxCell>
        <mxCell id="v_CpzFp49FXpS_RmVi6n-107" value="PKG_ITEMS" style="shape=table;startSize=30;container=1;collapsible=1;childLayout=tableLayout;fixedRows=1;rowLines=0;fontStyle=1;align=center;resizeLast=1;html=1;verticalAlign=top;" vertex="1" parent="1">
          <mxGeometry x="590" y="540" width="140" height="120" as="geometry">
            <mxRectangle x="120" y="150" width="100" height="30" as="alternateBounds" />
          </mxGeometry>
        </mxCell>
        <mxCell id="v_CpzFp49FXpS_RmVi6n-108" value="" style="shape=partialRectangle;collapsible=0;dropTarget=0;pointerEvents=0;fillColor=none;points=[[0,0.5],[1,0.5]];portConstraint=eastwest;top=0;left=0;right=0;bottom=1;fontStyle=1;html=1;verticalAlign=top;" vertex="1" parent="v_CpzFp49FXpS_RmVi6n-107">
          <mxGeometry y="30" width="140" height="30" as="geometry" />
        </mxCell>
        <mxCell id="v_CpzFp49FXpS_RmVi6n-109" value="PK" style="shape=partialRectangle;overflow=hidden;connectable=0;fillColor=none;top=0;left=0;bottom=0;right=0;fontStyle=1;html=1;verticalAlign=top;" vertex="1" parent="v_CpzFp49FXpS_RmVi6n-108">
          <mxGeometry width="30" height="30" as="geometry">
            <mxRectangle width="30" height="30" as="alternateBounds" />
          </mxGeometry>
        </mxCell>
        <mxCell id="v_CpzFp49FXpS_RmVi6n-110" value="ID" style="shape=partialRectangle;overflow=hidden;connectable=0;fillColor=none;top=0;left=0;bottom=0;right=0;align=left;spacingLeft=6;fontStyle=5;horizontal=1;html=1;verticalAlign=top;" vertex="1" parent="v_CpzFp49FXpS_RmVi6n-108">
          <mxGeometry x="30" width="110" height="30" as="geometry">
            <mxRectangle width="110" height="30" as="alternateBounds" />
          </mxGeometry>
        </mxCell>
        <mxCell id="v_CpzFp49FXpS_RmVi6n-111" value="" style="shape=partialRectangle;collapsible=0;dropTarget=0;pointerEvents=0;fillColor=none;points=[[0,0.5],[1,0.5]];portConstraint=eastwest;top=0;left=0;right=0;bottom=0;fontStyle=1;html=1;verticalAlign=top;" vertex="1" parent="v_CpzFp49FXpS_RmVi6n-107">
          <mxGeometry y="60" width="140" height="60" as="geometry" />
        </mxCell>
        <mxCell id="v_CpzFp49FXpS_RmVi6n-112" value="FK1&lt;div&gt;FK2&lt;/div&gt;" style="shape=partialRectangle;overflow=hidden;connectable=0;fillColor=none;top=0;left=0;bottom=0;right=0;fontStyle=1;html=1;verticalAlign=top;" vertex="1" parent="v_CpzFp49FXpS_RmVi6n-111">
          <mxGeometry width="30" height="60" as="geometry">
            <mxRectangle width="30" height="60" as="alternateBounds" />
          </mxGeometry>
        </mxCell>
        <mxCell id="v_CpzFp49FXpS_RmVi6n-113" value="&lt;div&gt;PACKAGE_ID&lt;/div&gt;&lt;div&gt;ITEM_ID&lt;/div&gt;&lt;div&gt;QTY&lt;/div&gt;" style="shape=partialRectangle;overflow=hidden;connectable=0;fillColor=none;top=0;left=0;bottom=0;right=0;align=left;spacingLeft=6;fontStyle=1;html=1;verticalAlign=top;" vertex="1" parent="v_CpzFp49FXpS_RmVi6n-111">
          <mxGeometry x="30" width="110" height="60" as="geometry">
            <mxRectangle width="110" height="60" as="alternateBounds" />
          </mxGeometry>
        </mxCell>
        <mxCell id="v_CpzFp49FXpS_RmVi6n-114" value="ITEMS" style="shape=table;startSize=30;container=1;collapsible=1;childLayout=tableLayout;fixedRows=1;rowLines=0;fontStyle=1;align=center;resizeLast=1;html=1;verticalAlign=top;" vertex="1" parent="1">
          <mxGeometry x="370" y="670" width="140" height="120" as="geometry">
            <mxRectangle x="120" y="150" width="100" height="30" as="alternateBounds" />
          </mxGeometry>
        </mxCell>
        <mxCell id="v_CpzFp49FXpS_RmVi6n-115" value="" style="shape=partialRectangle;collapsible=0;dropTarget=0;pointerEvents=0;fillColor=none;points=[[0,0.5],[1,0.5]];portConstraint=eastwest;top=0;left=0;right=0;bottom=1;fontStyle=1;html=1;verticalAlign=top;" vertex="1" parent="v_CpzFp49FXpS_RmVi6n-114">
          <mxGeometry y="30" width="140" height="30" as="geometry" />
        </mxCell>
        <mxCell id="v_CpzFp49FXpS_RmVi6n-116" value="PK" style="shape=partialRectangle;overflow=hidden;connectable=0;fillColor=none;top=0;left=0;bottom=0;right=0;fontStyle=1;html=1;verticalAlign=top;" vertex="1" parent="v_CpzFp49FXpS_RmVi6n-115">
          <mxGeometry width="30" height="30" as="geometry">
            <mxRectangle width="30" height="30" as="alternateBounds" />
          </mxGeometry>
        </mxCell>
        <mxCell id="v_CpzFp49FXpS_RmVi6n-117" value="ITEM_ID" style="shape=partialRectangle;overflow=hidden;connectable=0;fillColor=none;top=0;left=0;bottom=0;right=0;align=left;spacingLeft=6;fontStyle=5;horizontal=1;html=1;verticalAlign=top;" vertex="1" parent="v_CpzFp49FXpS_RmVi6n-115">
          <mxGeometry x="30" width="110" height="30" as="geometry">
            <mxRectangle width="110" height="30" as="alternateBounds" />
          </mxGeometry>
        </mxCell>
        <mxCell id="v_CpzFp49FXpS_RmVi6n-118" value="" style="shape=partialRectangle;collapsible=0;dropTarget=0;pointerEvents=0;fillColor=none;points=[[0,0.5],[1,0.5]];portConstraint=eastwest;top=0;left=0;right=0;bottom=0;fontStyle=1;html=1;verticalAlign=top;" vertex="1" parent="v_CpzFp49FXpS_RmVi6n-114">
          <mxGeometry y="60" width="140" height="60" as="geometry" />
        </mxCell>
        <mxCell id="v_CpzFp49FXpS_RmVi6n-119" value="" style="shape=partialRectangle;overflow=hidden;connectable=0;fillColor=none;top=0;left=0;bottom=0;right=0;fontStyle=1;html=1;verticalAlign=top;" vertex="1" parent="v_CpzFp49FXpS_RmVi6n-118">
          <mxGeometry width="30" height="60" as="geometry">
            <mxRectangle width="30" height="60" as="alternateBounds" />
          </mxGeometry>
        </mxCell>
        <mxCell id="v_CpzFp49FXpS_RmVi6n-120" value="DES&lt;div&gt;VAL&lt;/div&gt;&lt;div&gt;QTY_ON_HAND&lt;/div&gt;" style="shape=partialRectangle;overflow=hidden;connectable=0;fillColor=none;top=0;left=0;bottom=0;right=0;align=left;spacingLeft=6;fontStyle=1;html=1;verticalAlign=top;" vertex="1" parent="v_CpzFp49FXpS_RmVi6n-118">
          <mxGeometry x="30" width="110" height="60" as="geometry">
            <mxRectangle width="110" height="60" as="alternateBounds" />
          </mxGeometry>
        </mxCell>
        <mxCell id="v_CpzFp49FXpS_RmVi6n-125" value="" style="edgeStyle=entityRelationEdgeStyle;fontSize=12;html=1;endArrow=ERzeroToMany;startArrow=ERmandOne;rounded=0;fontFamily=Helvetica;fontColor=default;fontStyle=4;entryX=-0.008;entryY=0.213;entryDx=0;entryDy=0;entryPerimeter=0;" edge="1" parent="1" target="v_CpzFp49FXpS_RmVi6n-97">
          <mxGeometry width="100" height="100" relative="1" as="geometry">
            <mxPoint x="260" y="358" as="sourcePoint" />
            <mxPoint x="365.07999999999987" y="382.0799999999999" as="targetPoint" />
          </mxGeometry>
        </mxCell>
        <mxCell id="v_CpzFp49FXpS_RmVi6n-126" value="" style="edgeStyle=entityRelationEdgeStyle;fontSize=12;html=1;endArrow=ERzeroToMany;startArrow=ERmandOne;rounded=0;fontFamily=Helvetica;fontColor=default;fontStyle=4;entryX=-0.008;entryY=0.4;entryDx=0;entryDy=0;entryPerimeter=0;exitX=1;exitY=0.5;exitDx=0;exitDy=0;" edge="1" parent="1" source="v_CpzFp49FXpS_RmVi6n-79" target="v_CpzFp49FXpS_RmVi6n-97">
          <mxGeometry width="100" height="100" relative="1" as="geometry">
            <mxPoint x="270" y="368" as="sourcePoint" />
            <mxPoint x="379" y="395" as="targetPoint" />
          </mxGeometry>
        </mxCell>
        <mxCell id="v_CpzFp49FXpS_RmVi6n-127" value="" style="edgeStyle=entityRelationEdgeStyle;fontSize=12;html=1;endArrow=ERzeroToOne;startArrow=ERmandOne;rounded=0;fontFamily=Helvetica;fontColor=default;fontStyle=4;entryX=0.995;entryY=0.858;entryDx=0;entryDy=0;entryPerimeter=0;" edge="1" parent="1" source="v_CpzFp49FXpS_RmVi6n-101" target="v_CpzFp49FXpS_RmVi6n-82">
          <mxGeometry width="100" height="100" relative="1" as="geometry">
            <mxPoint x="290" y="714.24" as="sourcePoint" />
            <mxPoint x="286.5" y="610" as="targetPoint" />
            <Array as="points">
              <mxPoint x="420" y="670" />
              <mxPoint x="300" y="690" />
              <mxPoint x="390" y="650" />
              <mxPoint x="330" y="690" />
            </Array>
          </mxGeometry>
        </mxCell>
        <mxCell id="v_CpzFp49FXpS_RmVi6n-128" value="" style="edgeStyle=entityRelationEdgeStyle;fontSize=12;html=1;endArrow=ERoneToMany;startArrow=ERzeroToOne;rounded=0;fontFamily=Helvetica;fontColor=default;fontStyle=4;entryX=0;entryY=0.5;entryDx=0;entryDy=0;exitX=1.005;exitY=0.257;exitDx=0;exitDy=0;exitPerimeter=0;" edge="1" parent="1" source="v_CpzFp49FXpS_RmVi6n-82" target="v_CpzFp49FXpS_RmVi6n-87">
          <mxGeometry width="100" height="100" relative="1" as="geometry">
            <mxPoint x="280" y="590" as="sourcePoint" />
            <mxPoint x="369.99999999999983" y="557.42" as="targetPoint" />
          </mxGeometry>
        </mxCell>
        <mxCell id="v_CpzFp49FXpS_RmVi6n-129" value="" style="edgeStyle=entityRelationEdgeStyle;fontSize=12;html=1;endArrow=ERoneToMany;startArrow=ERmandOne;rounded=0;fontFamily=Helvetica;fontColor=default;fontStyle=4;exitX=1;exitY=0.5;exitDx=0;exitDy=0;entryX=-0.005;entryY=0.243;entryDx=0;entryDy=0;entryPerimeter=0;" edge="1" parent="1" source="v_CpzFp49FXpS_RmVi6n-87" target="v_CpzFp49FXpS_RmVi6n-111">
          <mxGeometry width="100" height="100" relative="1" as="geometry">
            <mxPoint x="370" y="680" as="sourcePoint" />
            <mxPoint x="580" y="710" as="targetPoint" />
          </mxGeometry>
        </mxCell>
        <mxCell id="v_CpzFp49FXpS_RmVi6n-130" value="" style="edgeStyle=entityRelationEdgeStyle;fontSize=12;html=1;endArrow=ERzeroToMany;startArrow=ERmandOne;rounded=0;fontFamily=Helvetica;fontColor=default;fontStyle=4;entryX=0;entryY=0.5;entryDx=0;entryDy=0;exitX=1;exitY=0.5;exitDx=0;exitDy=0;" edge="1" parent="1" source="v_CpzFp49FXpS_RmVi6n-115" target="v_CpzFp49FXpS_RmVi6n-111">
          <mxGeometry width="100" height="100" relative="1" as="geometry">
            <mxPoint x="270" y="555" as="sourcePoint" />
            <mxPoint x="379" y="408" as="targetPoint" />
          </mxGeometry>
        </mxCell>
      </root>
    </mxGraphModel>
  </diagram>
</mxfile>
